<svg xmlns="http://www.w3.org/2000/svg" viewBox="0 0 512 512">
  <circle cx="256" cy="256" r="256" fill="#111722"/>
  <g fill="none" stroke="rgba(255,255,255,0.7)" stroke-width="22" stroke-linecap="round" stroke-linejoin="round">
    <!-- { -->
    <path d="M220 140 C200 140 185 155 185 175 L185 215 C185 235 170 250 150 250 C170 250 185 265 185 285 L185 337 C185 357 200 372 220 372"/>
    <!-- } -->
    <path d="M292 140 C312 140 327 155 327 175 L327 215 C327 235 342 250 362 250 C342 250 327 265 327 285 L327 337 C327 357 312 372 292 372"/>
  </g>
  <circle cx="256" cy="250" r="12" fill="rgba(0,180,219,0.9)"/>
</svg>
