<svg xmlns="http://www.w3.org/2000/svg" viewBox="0 0 512 512">
  <circle cx="256" cy="256" r="256" fill="#25D366"/>
  <path fill="#fff" d="M256 96C167.6 96 96 167.6 96 256c0 31.4 8.8 60.7 24.2 85.6L96 416l76.8-24.1C196.6 406.4 225.4 416 256 416c88.4 0 160-71.6 160-160S344.4 96 256 96zm0 290c-27.2 0-52.6-7.9-74-21.5l-5.2-3.1-44.8 14 14.3-43.7-3.4-5.4C128.7 305.7 121 281.6 121 256c0-74.4 60.6-135 135-135s135 60.6 135 135-60.6 135-135 135zm74.3-100.8c-4.1-2-24.2-11.9-27.9-13.3-3.7-1.4-6.4-2-9.1 2-2.7 4.1-10.5 13.3-12.8 16-2.4 2.7-4.7 3-8.8 1-4.1-2-17.3-6.4-32.9-20.3-12.2-10.8-20.4-24.2-22.8-28.3-2.4-4.1-.3-6.3 1.8-8.3 1.8-1.8 4.1-4.7 6.1-7.1 2-2.4 2.7-4.1 4.1-6.8 1.4-2.7.7-5.1-.3-7.1-1-2-9.1-21.9-12.5-30-3.3-7.9-6.6-6.8-9.1-6.9-2.4-.1-5.1-.1-7.8-.1-2.7 0-7.1 1-10.8 5.1-3.7 4.1-14.2 13.9-14.2 33.8s14.5 39.2 16.5 41.9c2 2.7 28.5 43.5 69.1 61 9.7 4.2 17.2 6.7 23.1 8.5 9.7 3.1 18.5 2.7 25.5 1.6 7.8-1.2 24.2-9.9 27.6-19.4 3.4-9.5 3.4-17.7 2.4-19.4-1-1.7-3.7-2.7-7.8-4.7z"/>
</svg>
